<?xml version="1.0" ?><svg data-name="Layer 1" id="Layer_1" viewBox="0 0 24 24" xmlns="http://www.w3.org/2000/svg"><title/><path d="M20.36,5.14a1,1,0,0,0-.06-.34s0,0,0-.08L20.2,4.6l-.68-1,.68-1A1,1,0,0,0,19.37,1H4.63A1,1,0,0,0,3.8,2.55l.68,1-.68,1a.67.67,0,0,0-.06.12s0,0,0,.08a1,1,0,0,0-.06.34V22a1,1,0,0,0,1,1H19.37a1,1,0,0,0,1-1V5.16S20.36,5.15,20.36,5.14ZM6.52,3l0,0h11l0,0a1,1,0,0,0,0,1.11l0,0H6.5l0,0A1,1,0,0,0,6.52,3ZM18.37,21H5.63V6.16H18.37Z"/><path d="M12,14.58a4.17,4.17,0,0,0,4.16-4.16V9.37a1,1,0,0,0-2,0v1.05a2.16,2.16,0,1,1-4.32,0V9.37a1,1,0,0,0-2,0v1.05A4.17,4.17,0,0,0,12,14.58Z"/></svg>
<?xml version="1.0" ?><svg viewBox="0 0 129.88 129.88" xmlns="http://www.w3.org/2000/svg" xmlns:xlink="http://www.w3.org/1999/xlink"><defs><style>.cls-1{fill:url(#linear-gradient);}.cls-2,.cls-3{fill:none;stroke-linejoin:round;stroke-width:4.6px;}.cls-2,.cls-3,.cls-4{stroke:#fff;}.cls-3{stroke-linecap:round;}.cls-4{stroke-miterlimit:10;stroke-width:4px;fill:url(#linear-gradient-2);}</style><linearGradient gradientUnits="userSpaceOnUse" id="linear-gradient" x1="21.08" x2="108.88" y1="90.47" y2="39.78"><stop offset="0.02" stop-color="red"/><stop offset="1" stop-color="#9e005d"/></linearGradient><linearGradient id="linear-gradient-2" x1="46.14" x2="88.56" xlink:href="#linear-gradient" y1="57.75" y2="57.75"/></defs><title/><g data-name="Layer 1" id="Layer_1"><path class="cls-1" d="M86.37,14.44H43.59a13.65,13.65,0,0,0-11.82,6.82L10.38,58.31a13.67,13.67,0,0,0,0,13.64L31.77,109a13.65,13.65,0,0,0,11.82,6.82H86.37A13.63,13.63,0,0,0,98.18,109l21.4-37a13.67,13.67,0,0,0,0-13.64l-21.4-37A13.63,13.63,0,0,0,86.37,14.44Z"/><path class="cls-2" d="M62.32,91.8a5.08,5.08,0,1,1-5.08-5.08A5.08,5.08,0,0,1,62.32,91.8Z"/><path class="cls-2" d="M82.53,91.8a5.08,5.08,0,1,1-5.08-5.08A5.08,5.08,0,0,1,82.53,91.8Z"/><polyline class="cls-3" points="34.12 40.87 44.55 40.87 52.15 75.69 48.62 80.81 87.92 80.81"/><polygon class="cls-4" points="88.56 68.62 51.62 71.62 46.14 43.87 88.56 43.87 88.56 68.62"/><line class="cls-3" x1="55.59" x2="80.24" y1="51.36" y2="51.36"/></g></svg>